HIERARCHY
ROOT Hips
{
	OFFSET 0.000000 0.000000 0.000000
	CHANNELS 6 Xposition Yposition Zposition Zrotation Yrotation Xrotation 
	JOINT LowerBack
	{
		OFFSET 0.000000 0.000000 0.000000
		CHANNELS 3 Zrotation Yrotation Xrotation
		JOINT Spine
		{
			OFFSET 0.028270 2.035590 -0.193380
			CHANNELS 3 Zrotation Yrotation Xrotation
			JOINT Spine1
			{
				OFFSET 0.056720 2.048850 -0.042750
				CHANNELS 3 Zrotation Yrotation Xrotation
				JOINT Neck
				{
					OFFSET 0.000000 0.000000 0.000000
					CHANNELS 3 Zrotation Yrotation Xrotation
					JOINT Neck1
					{
						OFFSET -0.054170 1.746240 0.172020
						CHANNELS 3 Zrotation Yrotation Xrotation
						JOINT Head
						{
							OFFSET 0.104070 1.761360 -0.123970
							CHANNELS 3 Zrotation Yrotation Xrotation
							End Site
							{
								OFFSET 0.000000 0.000000 0.000000
							}
						}
					}
				}
				JOINT LeftShoulder
				{
					OFFSET 0.000000 0.000000 0.000000
					CHANNELS 3 Zrotation Yrotation Xrotation
					JOINT LeftArm
					{
						OFFSET 3.362410 1.200890 -0.311210
						CHANNELS 3 Zrotation Yrotation Xrotation
						JOINT LeftForeArm
						{
							OFFSET 4.983000 -0.000000 -0.000000
							CHANNELS 3 Zrotation Yrotation Xrotation
							JOINT LeftHand
							{
								OFFSET 3.483560 -0.000000 -0.000000
								CHANNELS 3 Zrotation Yrotation Xrotation
								JOINT LeftFingerBase
								{
									OFFSET 0.000000 0.000000 0.000000
									CHANNELS 3 Zrotation Yrotation Xrotation
									JOINT LeftHandIndex1
									{
										OFFSET 0.715260 -0.000000 -0.000000
										CHANNELS 3 Zrotation Yrotation Xrotation
										End Site
										{
											OFFSET 0.000000 0.000000 0.000000
										}
									}
								}
								JOINT LThumb
								{
									OFFSET 0.000000 0.000000 0.000000
									CHANNELS 3 Zrotation Yrotation Xrotation
									End Site
									{
										OFFSET 0.000000 0.000000 0.000000
									}
								}
							}
						}
					}
				}
				JOINT RightShoulder
				{
					OFFSET 0.000000 0.000000 0.000000
					CHANNELS 3 Zrotation Yrotation Xrotation
					JOINT RightArm
					{
						OFFSET -3.136600 1.374050 -0.404650
						CHANNELS 3 Zrotation Yrotation Xrotation
						JOINT RightForeArm
						{
							OFFSET -5.241900 -0.000000 -0.000000
							CHANNELS 3 Zrotation Yrotation Xrotation
							JOINT RightHand
							{
								OFFSET -3.444170 -0.000000 -0.000000
								CHANNELS 3 Zrotation Yrotation Xrotation
								JOINT RightFingerBase
								{
									OFFSET 0.000000 0.000000 0.000000
									CHANNELS 3 Zrotation Yrotation Xrotation
									JOINT RightHandIndex1
									{
										OFFSET -0.622530 -0.000000 -0.000000
										CHANNELS 3 Zrotation Yrotation Xrotation
										End Site
										{
											OFFSET 0.000000 0.000000 0.000000
										}
									}
								}
								JOINT RThumb
								{
									OFFSET 0.000000 0.000000 0.000000
									CHANNELS 3 Zrotation Yrotation Xrotation
									End Site
									{
										OFFSET 0.000000 0.000000 0.000000
									}
								}
							}
						}
					}
				}
			}
		}
	}
}
}
MOTION
Frames: 14
Frame Time: 0.008333
4.320918 16.815594 1.135727 -96.077559 -89.688649 97.921976 -4.334792 -0.328286 -3.204876 -1.277253 -0.125563 -2.740535 -4.638967 -0.177540 3.411415 9.324674 -17.404675 -11.885934 -0.907674 -0.009944 -1.103794 0.000000 0.000000 0.000000 -1.840003 30.027840 1.528108 -73.313718 30.340074 -5.043370 -4.743507 -17.377551 -0.044564 -5.921996 13.020151 -0.670838 -0.126374 -0.151581 -0.000000 0.000000 0.000000 0.000000 0.000000 0.000000 0.000000 9.355637 -12.008670 -0.287036 50.873370 6.144900 9.951230 2.127642 46.465916 0.012920 3.324618 4.599445 0.135244 0.059164 -0.119218 0.000000 0.000000 0.000000 0.000000 0.000000 0.000000 0.000000 
4.189371 16.817277 1.150675 -96.649371 -89.865241 98.258298 -4.569030 -0.396200 -2.945297 -1.331499 -0.170836 -2.697774 -4.667881 -0.217328 3.399431 9.377328 -17.428697 -11.886681 -0.918248 -0.010399 -1.105963 0.000000 0.000000 0.000000 -1.760535 29.889625 1.543265 -73.581050 29.881469 -4.814417 -4.714619 -17.419640 -0.043901 -5.827896 13.014009 -0.659631 -0.125095 -0.150463 -0.000000 0.000000 0.000000 0.000000 0.000000 0.000000 0.000000 9.419880 -12.046529 -0.322088 51.647852 5.771137 9.658991 2.156165 46.244913 0.013005 3.259572 4.644725 0.133756 0.061028 -0.119235 0.000000 0.000000 0.000000 0.000000 0.000000 0.000000 0.000000 
4.059881 16.819318 1.165870 82.468499 -89.953922 -81.065331 -4.798953 -0.459692 -2.703896 -1.385264 -0.213267 -2.658776 -4.696148 -0.254485 3.387489 9.431941 -17.475013 -11.892524 -0.927785 -0.010696 -1.109266 0.000000 0.000000 0.000000 -1.651138 29.722283 1.556723 -73.843243 29.418854 -4.519734 -4.686125 -17.555597 -0.043291 -5.766139 13.000180 -0.651926 -0.123761 -0.149324 -0.000000 0.000000 0.000000 0.000000 0.000000 0.000000 0.000000 9.487297 -12.105720 -0.349771 52.449070 5.377542 9.394440 2.189976 46.019663 0.013142 3.261936 4.671076 0.134565 0.062401 -0.118780 0.000000 0.000000 0.000000 0.000000 0.000000 0.000000 0.000000 
3.932453 16.821077 1.181058 81.639102 -89.772000 -80.405045 -5.022411 -0.521613 -2.487558 -1.437570 -0.255968 -2.624419 -4.724148 -0.292341 3.375971 9.493060 -17.544798 -11.905104 -0.936952 -0.010876 -1.114121 0.000000 0.000000 0.000000 -1.517305 29.530582 1.567357 -74.095883 28.959349 -4.150192 -4.657454 -17.791784 -0.042676 -5.739561 12.956584 -0.646718 -0.122293 -0.148148 -0.000000 0.000000 0.000000 0.000000 0.000000 0.000000 0.000000 9.567370 -12.188496 -0.369370 53.257457 4.977851 9.175969 2.228400 45.794959 0.013320 3.333869 4.674760 0.137573 0.063240 -0.117790 0.000000 0.000000 0.000000 0.000000 0.000000 0.000000 0.000000 
3.806882 16.822221 1.196373 81.460609 -89.599911 -80.342529 -5.227162 -0.581727 -2.310165 -1.485849 -0.299711 -2.597666 -4.753937 -0.332007 3.362974 9.562564 -17.626482 -11.923396 -0.948210 -0.011210 -1.120131 0.000000 0.000000 0.000000 -1.374538 29.314839 1.573690 -74.329110 28.514910 -3.692367 -4.627018 -18.134558 -0.041974 -5.745053 12.860128 -0.642709 -0.120569 -0.146930 -0.000000 0.000000 0.000000 0.000000 0.000000 0.000000 0.000000 9.668030 -12.281090 -0.380523 54.056197 4.561640 8.998078 2.270692 45.586647 0.013525 3.474256 4.651362 0.142778 0.063534 -0.116282 0.000000 0.000000 0.000000 0.000000 0.000000 0.000000 0.000000 
3.683299 16.822370 1.211336 81.871477 -89.438737 -80.823195 -5.415086 -0.643989 -2.165687 -1.530152 -0.347898 -2.576454 -4.785331 -0.376772 3.351052 9.644810 -17.727300 -11.950080 -0.961151 -0.011597 -1.128146 0.000000 0.000000 0.000000 -1.227861 29.089292 1.575127 -74.541211 28.076330 -3.162128 -4.594386 -18.565205 -0.041134 -5.773248 12.697097 -0.637897 -0.118608 -0.145593 -0.000000 0.000000 0.000000 0.000000 0.000000 0.000000 0.000000 9.797041 -12.394033 -0.384287 54.833927 4.167921 8.894566 2.315974 45.374855 0.013735 3.659030 4.611918 0.149182 0.063512 -0.114319 0.000000 0.000000 0.000000 0.000000 0.000000 0.000000 0.000000 
3.561596 16.821551 1.225966 83.112285 -89.296229 -82.083648 -5.577888 -0.709303 -2.056295 -1.568710 -0.401783 -2.561300 -4.819510 -0.427974 3.339494 9.739187 -17.834971 -11.983611 -0.977380 -0.012211 -1.137757 0.000000 0.000000 0.000000 -1.090457 28.859151 1.571529 -74.727533 27.642289 -2.573289 -4.558435 -19.067824 -0.040097 -5.809249 12.457767 -0.630082 -0.116406 -0.144064 -0.000000 0.000000 0.000000 0.000000 0.000000 0.000000 0.000000 9.956105 -12.514626 -0.382106 55.586264 3.796737 8.859955 2.363416 45.156580 0.013938 3.869742 4.563408 0.156185 0.063326 -0.112022 0.000000 0.000000 0.000000 0.000000 0.000000 0.000000 0.000000 
3.441950 16.819869 1.240066 85.207813 -89.174368 -84.155982 -5.713159 -0.780044 -1.977240 -1.600659 -0.463541 -2.551060 -4.856207 -0.487748 3.328799 9.844000 -17.943760 -12.023080 -0.997130 -0.013078 -1.148806 0.000000 0.000000 0.000000 -0.970193 28.631670 1.563436 -74.888090 27.203556 -1.954205 -4.518884 -19.616324 -0.038844 -5.835042 12.143743 -0.617164 -0.114051 -0.142239 -0.000000 0.000000 0.000000 0.000000 0.000000 0.000000 0.000000 10.142875 -12.638777 -0.376035 56.315513 3.460753 8.896200 2.412306 44.914977 0.014117 4.082886 4.517302 0.163188 0.063173 -0.109520 0.000000 0.000000 0.000000 0.000000 0.000000 0.000000 0.000000 
3.324406 16.817753 1.253757 88.271371 -89.075573 -87.157348 -5.814636 -0.856824 -1.923422 -1.624486 -0.533915 -2.545017 -4.895875 -0.556804 3.318040 9.954377 -18.036633 -12.065554 -1.021640 -0.014348 -1.160569 0.000000 0.000000 0.000000 -0.876744 28.410632 1.552113 -75.021648 26.751605 -1.324553 -4.475024 -20.186587 -0.037352 -5.829314 11.761605 -0.597242 -0.111634 -0.140040 -0.000000 0.000000 0.000000 0.000000 0.000000 0.000000 0.000000 10.350819 -12.749036 -0.368352 57.031078 3.150102 8.977725 2.462136 44.641884 0.014275 4.280884 4.484428 0.169891 0.063171 -0.106987 0.000000 0.000000 0.000000 0.000000 0.000000 0.000000 0.000000 
3.209125 16.815581 1.266991 92.171270 -88.994040 -90.967606 -5.884663 -0.941891 -1.885664 -1.640079 -0.614681 -2.541162 -4.936974 -0.636805 3.308201 10.065491 -18.108774 -12.109457 -1.050032 -0.015946 -1.172726 0.000000 0.000000 0.000000 -0.812409 28.201379 1.539156 -75.132374 26.274292 -0.713946 -4.427450 -20.751801 -0.035659 -5.775513 11.330618 -0.570117 -0.109317 -0.137402 -0.000000 0.000000 0.000000 0.000000 0.000000 0.000000 0.000000 10.569625 -12.842979 -0.361139 57.746751 2.871384 9.091493 2.512984 44.314687 0.014414 4.449346 4.474387 0.176195 0.063437 -0.104520 0.000000 0.000000 0.000000 0.000000 0.000000 0.000000 0.000000 
3.096152 16.813829 1.279796 96.889979 -88.921356 -95.580361 -5.926196 -1.035515 -1.855567 -1.647552 -0.705697 -2.537869 -4.978151 -0.727501 3.299664 10.171474 -18.154012 -12.152707 -1.081475 -0.017812 -1.184795 0.000000 0.000000 0.000000 -0.778216 28.006981 1.526113 -75.223328 25.761560 -0.142632 -4.376906 -21.291160 -0.033819 -5.661572 10.875488 -0.536389 -0.107253 -0.134315 -0.000000 0.000000 0.000000 0.000000 0.000000 0.000000 0.000000 10.787197 -12.915353 -0.355953 58.479601 2.621529 9.211739 2.565356 43.915798 0.014541 4.583595 4.491709 0.182100 0.063993 -0.102190 0.000000 0.000000 0.000000 0.000000 0.000000 0.000000 0.000000 
2.985478 16.812907 1.292263 101.921506 -88.852364 -100.498694 -5.940572 -1.139027 -1.825561 -1.647206 -0.808092 -2.533732 -5.017903 -0.829839 3.292880 10.266607 -18.169163 -12.193344 -1.114720 -0.019840 -1.196264 0.000000 0.000000 0.000000 -0.772743 27.827209 1.514489 -75.296712 25.206943 0.381521 -4.324031 -21.793428 -0.031901 -5.482295 10.423083 -0.497559 -0.105560 -0.130808 -0.000000 0.000000 0.000000 0.000000 0.000000 0.000000 0.000000 10.990565 -12.965005 -0.353848 59.248182 2.393882 9.306380 2.620268 43.429671 0.014673 4.687408 4.537782 0.188003 0.064818 -0.100008 0.000000 0.000000 0.000000 0.000000 0.000000 0.000000 0.000000 
2.876810 16.813137 1.304397 107.070275 -88.781743 -105.534874 -5.930958 -1.251133 -1.793432 -1.639856 -0.920380 -2.528142 -5.054993 -0.942207 3.289350 10.348022 -18.159481 -12.231071 -1.148072 -0.021875 -1.207038 0.000000 0.000000 0.000000 -0.791148 27.665113 1.504875 -75.352381 24.605588 0.854116 -4.270405 -22.252279 -0.030007 -5.245246 10.006003 -0.456627 -0.104322 -0.126970 -0.000000 0.000000 0.000000 0.000000 0.000000 0.000000 0.000000 11.171738 -12.997554 -0.354785 60.064930 2.184021 9.344213 2.679340 42.848216 0.014802 4.782921 4.595353 0.194107 0.065743 -0.097827 0.000000 0.000000 0.000000 0.000000 0.000000 0.000000 0.000000 
2.769980 16.814679 1.316341 112.075079 -88.710529 -110.433054 -5.895508 -1.370294 -1.755384 -1.625730 -1.041169 -2.520676 -5.089290 -1.063035 3.288762 10.413795 -18.128890 -12.265590 -1.180376 -0.023814 -1.216999 0.000000 0.000000 0.000000 -0.834364 27.518203 1.497173 -75.384332 23.958337 1.294603 -4.216220 -22.676900 -0.028209 -4.960290 9.645435 -0.415695 -0.103513 -0.122918 -0.000000 0.000000 0.000000 0.000000 0.000000 0.000000 0.000000 11.324161 -13.016766 -0.358021 60.940519 1.983381 9.287437 2.744181 42.166483 0.014941 4.883468 4.659027 0.200809 0.066705 -0.095641 0.000000 0.000000 0.000000 0.000000 0.000000 0.000000 0.000000 
